<svg width="17" height="16" viewBox="0 0 17 16" fill="none" xmlns="http://www.w3.org/2000/svg">
<g id="icn settings icn-xs" clip-path="url(#clip0_3010_28654)">
<path id="Vector" d="M0.500488 1.5C0.500488 1.36739 0.553167 1.24021 0.646935 1.14645C0.740703 1.05268 0.86788 1 1.00049 1H2.50049C2.61202 1.00003 2.72034 1.03735 2.80822 1.10602C2.8961 1.1747 2.9585 1.27078 2.98549 1.379L3.39049 3H15.0005C15.0739 3.00007 15.1464 3.0163 15.2128 3.04755C15.2793 3.0788 15.338 3.12429 15.3849 3.1808C15.4317 3.23731 15.4656 3.30345 15.484 3.37452C15.5024 3.44558 15.505 3.51984 15.4915 3.592L13.9915 11.592C13.97 11.7066 13.9092 11.8101 13.8196 11.8846C13.7299 11.9591 13.6171 11.9999 13.5005 12H4.50049C4.38392 11.9999 4.27105 11.9591 4.1814 11.8846C4.09174 11.8101 4.03094 11.7066 4.00949 11.592L2.51049 3.607L2.11049 2H1.00049C0.86788 2 0.740703 1.94732 0.646935 1.85355C0.553167 1.75979 0.500488 1.63261 0.500488 1.5ZM3.60249 4L4.91549 11H13.0855L14.3985 4H3.60249ZM5.50049 12C4.97006 12 4.46135 12.2107 4.08627 12.5858C3.7112 12.9609 3.50049 13.4696 3.50049 14C3.50049 14.5304 3.7112 15.0391 4.08627 15.4142C4.46135 15.7893 4.97006 16 5.50049 16C6.03092 16 6.53963 15.7893 6.9147 15.4142C7.28977 15.0391 7.50049 14.5304 7.50049 14C7.50049 13.4696 7.28977 12.9609 6.9147 12.5858C6.53963 12.2107 6.03092 12 5.50049 12ZM12.5005 12C11.9701 12 11.4613 12.2107 11.0863 12.5858C10.7112 12.9609 10.5005 13.4696 10.5005 14C10.5005 14.5304 10.7112 15.0391 11.0863 15.4142C11.4613 15.7893 11.9701 16 12.5005 16C13.0309 16 13.5396 15.7893 13.9147 15.4142C14.2898 15.0391 14.5005 14.5304 14.5005 14C14.5005 13.4696 14.2898 12.9609 13.9147 12.5858C13.5396 12.2107 13.0309 12 12.5005 12ZM5.50049 13C5.7657 13 6.02006 13.1054 6.20759 13.2929C6.39513 13.4804 6.50049 13.7348 6.50049 14C6.50049 14.2652 6.39513 14.5196 6.20759 14.7071C6.02006 14.8946 5.7657 15 5.50049 15C5.23527 15 4.98092 14.8946 4.79338 14.7071C4.60585 14.5196 4.50049 14.2652 4.50049 14C4.50049 13.7348 4.60585 13.4804 4.79338 13.2929C4.98092 13.1054 5.23527 13 5.50049 13ZM12.5005 13C12.7657 13 13.0201 13.1054 13.2076 13.2929C13.3951 13.4804 13.5005 13.7348 13.5005 14C13.5005 14.2652 13.3951 14.5196 13.2076 14.7071C13.0201 14.8946 12.7657 15 12.5005 15C12.2353 15 11.9809 14.8946 11.7934 14.7071C11.6058 14.5196 11.5005 14.2652 11.5005 14C11.5005 13.7348 11.6058 13.4804 11.7934 13.2929C11.9809 13.1054 12.2353 13 12.5005 13Z" fill="#23A6F0"/>
</g>
<defs>
<clipPath id="clip0_3010_28654">
<rect width="16" height="16" fill="white" transform="translate(0.500488)"/>
</clipPath>
</defs>
</svg>
